<?xml version="1.0" encoding="iso-8859-1"?>
<!-- Generator: Adobe Illustrator 22.0.0, SVG Export Plug-In . SVG Version: 6.00 Build 0)  -->
<svg version="1.1" id="&#x56FE;&#x5C42;_1" xmlns="http://www.w3.org/2000/svg" xmlns:xlink="http://www.w3.org/1999/xlink" x="0px"
	 y="0px" viewBox="0 0 80 80" style="enable-background:new 0 0 80 80;" xml:space="preserve">
<linearGradient id="SVGID_1_" gradientUnits="userSpaceOnUse" x1="15.1824" y1="60.2064" x2="51.3986" y2="60.2064">
	<stop  offset="0" style="stop-color:#4CE4A1"/>
	<stop  offset="1" style="stop-color:#2AEBEE"/>
</linearGradient>
<path style="fill-rule:evenodd;clip-rule:evenodd;fill:url(#SVGID_1_);" d="M15.182,69.253c0-9.993,8.107-18.093,18.108-18.093
	s18.108,8.101,18.108,18.093"/>
<path style="fill-rule:evenodd;clip-rule:evenodd;fill:none;stroke:#00354E;stroke-width:3;stroke-linecap:round;stroke-linejoin:round;stroke-miterlimit:10;" d="
	M8.278,32.847c0-8.621,0-15.935,0-15.935c0-2.083,1.689-3.772,3.772-3.772h56.579c2.083,0,3.772,1.689,3.772,3.772v43.377
	c0,2.083-1.689,3.772-3.772,3.772c0,0-5.705,0-13.492,0"/>
<path style="fill-rule:evenodd;clip-rule:evenodd;fill:none;stroke:#00354E;stroke-width:3;stroke-linecap:round;stroke-linejoin:round;stroke-miterlimit:10;" d="
	M40.649,27.351h23.386"/>
<path style="fill-rule:evenodd;clip-rule:evenodd;fill:none;stroke:#00354E;stroke-width:3;stroke-linecap:round;stroke-linejoin:round;stroke-miterlimit:10;" d="
	M40.649,36.418h12.825"/>
<g>
	<path style="fill:#00354E;" d="M24.364,30.099c5,0,9.067,4.068,9.067,9.067c0,5-4.068,9.067-9.067,9.067
		c-5,0-9.067-4.067-9.067-9.067C15.296,34.167,19.364,30.099,24.364,30.099 M24.364,27.099c-6.664,0-12.067,5.403-12.067,12.067
		c0,6.664,5.403,12.067,12.067,12.067s12.067-5.403,12.067-12.067C36.431,32.502,31.028,27.099,24.364,27.099L24.364,27.099z"/>
</g>
<path style="fill-rule:evenodd;clip-rule:evenodd;fill:none;stroke:#00354E;stroke-width:3;stroke-linecap:round;stroke-linejoin:round;stroke-miterlimit:10;" d="
	M6.255,68.31c0-9.993,8.107-18.093,18.108-18.093s18.108,8.101,18.108,18.093"/>
<path style="fill-rule:evenodd;clip-rule:evenodd;fill:none;stroke:#00354E;stroke-width:3;stroke-linecap:round;stroke-linejoin:round;stroke-miterlimit:10;" d="
	M50.015,42.77l-7.544,25.649"/>
</svg>
