<?xml version="1.0" encoding="iso-8859-1"?>
<!-- Generator: Adobe Illustrator 22.0.0, SVG Export Plug-In . SVG Version: 6.00 Build 0)  -->
<svg version="1.1" id="&#x56FE;&#x5C42;_1" xmlns="http://www.w3.org/2000/svg" xmlns:xlink="http://www.w3.org/1999/xlink" x="0px"
	 y="0px" viewBox="0 0 240 240" style="enable-background:new 0 0 240 240;" xml:space="preserve">
<g>
	<linearGradient id="SVGID_1_" gradientUnits="userSpaceOnUse" x1="151.8935" y1="142.9276" x2="186.1242" y2="142.9276">
		<stop  offset="0" style="stop-color:#4CE4A1"/>
		<stop  offset="1" style="stop-color:#2AEBEE"/>
	</linearGradient>
	<path style="fill-rule:evenodd;clip-rule:evenodd;fill:url(#SVGID_1_);" d="M169.009,125.812c9.452,0,17.115,7.663,17.115,17.115
		s-7.663,17.115-17.115,17.115c-9.453,0-17.115-7.663-17.115-17.115S159.556,125.812,169.009,125.812z"/>
	<path style="fill-rule:evenodd;clip-rule:evenodd;fill:#00354E;" d="M96.421,171.647c3.679,0,6.662,2.983,6.662,6.662
		s-2.983,6.662-6.662,6.662s-6.662-2.983-6.662-6.662S92.742,171.647,96.421,171.647z"/>
	
		<path style="fill-rule:evenodd;clip-rule:evenodd;fill:none;stroke:#00354E;stroke-width:4;stroke-linecap:round;stroke-miterlimit:10;" d="
		M146.069,188.411c0,0,0.069,4.151-0.159,5.522c-0.605,3.644-4.507,6.009-8.407,6.009H55.339c-4.906,0-8.883-3.977-8.883-8.883
		V48.94c0-4.906,3.977-8.883,8.883-8.883h82.164c4.906,0,8.883,3.977,8.883,8.883v60.12"/>
	<path style="fill-rule:evenodd;clip-rule:evenodd;fill:none;stroke:#00354E;stroke-width:4;stroke-miterlimit:10;" d="
		M47.091,161.857h87.247"/>
	<g>
		<g>
			
				<line style="fill-rule:evenodd;clip-rule:evenodd;fill:none;stroke:#00354E;stroke-width:4;stroke-linecap:round;stroke-miterlimit:10;" x1="153.38" y1="173.447" x2="144.72" y2="187.435"/>
			
				<line style="fill-rule:evenodd;clip-rule:evenodd;fill:none;stroke:#00354E;stroke-width:4;stroke-linecap:round;stroke-miterlimit:10;" x1="168.035" y1="173.447" x2="176.694" y2="187.435"/>
		</g>
		<g>
			<path style="fill-rule:evenodd;clip-rule:evenodd;fill:#00354E;" d="M160.571,115.056c2.195,0,3.974,1.779,3.974,3.974
				s-1.779,3.974-3.974,3.974c-2.195,0-3.974-1.779-3.974-3.974S158.376,115.056,160.571,115.056z"/>
			<circle style="fill:none;stroke:#00354E;stroke-width:4;stroke-miterlimit:10;" cx="160.571" cy="140.974" r="32.973"/>
			<circle style="fill:none;stroke:#00354E;stroke-width:4;stroke-miterlimit:10;" cx="160.571" cy="142.889" r="15.237"/>
			
				<line style="fill-rule:evenodd;clip-rule:evenodd;fill:none;stroke:#00354E;stroke-width:4;stroke-linecap:round;stroke-miterlimit:10;" x1="134.677" y1="188.102" x2="186.465" y2="188.102"/>
		</g>
	</g>
	<g>
		<g>
			<g>
				<path style="fill-rule:evenodd;clip-rule:evenodd;fill:#00354E;" d="M113.354,71.342c-2.598,0-4.703,2.072-4.703,4.628
					c0,2.556,2.106,4.628,4.703,4.628c2.598,0,4.704-2.072,4.704-4.628C118.058,73.415,115.952,71.342,113.354,71.342z
					 M79.488,71.342c-2.598,0-4.704,2.072-4.704,4.628c0,2.556,2.106,4.628,4.704,4.628c2.598,0,4.704-2.072,4.704-4.628
					C84.192,73.415,82.086,71.342,79.488,71.342z"/>
			</g>
		</g>
		
			<path style="fill-rule:evenodd;clip-rule:evenodd;fill:none;stroke:#00354E;stroke-width:4;stroke-linecap:round;stroke-linejoin:round;stroke-miterlimit:10;" d="
			M116.176,99.019c0,10.735-8.845,19.438-19.755,19.438c-10.91,0-19.755-8.703-19.755-19.438"/>
	</g>
</g>
</svg>
