<?xml version="1.0" encoding="iso-8859-1"?>
<!-- Generator: Adobe Illustrator 22.0.0, SVG Export Plug-In . SVG Version: 6.00 Build 0)  -->
<svg version="1.1" id="&#x56FE;&#x5C42;_1" xmlns="http://www.w3.org/2000/svg" xmlns:xlink="http://www.w3.org/1999/xlink" x="0px"
	 y="0px" viewBox="0 0 80 80" style="enable-background:new 0 0 80 80;" xml:space="preserve">
<linearGradient id="SVGID_1_" gradientUnits="userSpaceOnUse" x1="29.7173" y1="21.3689" x2="63.2068" y2="21.3689">
	<stop  offset="0" style="stop-color:#4CE4A1"/>
	<stop  offset="1" style="stop-color:#2AEBEE"/>
</linearGradient>
<path style="fill-rule:evenodd;clip-rule:evenodd;fill:url(#SVGID_1_);" d="M46.462,4.594c9.248,0,16.745,7.511,16.745,16.775
	S55.71,38.144,46.462,38.144c-9.248,0-16.745-7.511-16.745-16.775S37.214,4.594,46.462,4.594z"/>
<g>
	<path style="fill:#00354E;" d="M39.806,7.594c7.579,0,13.745,6.18,13.745,13.775c0,7.596-6.166,13.775-13.745,13.775
		c-7.579,0-13.745-6.18-13.745-13.775C26.061,13.773,32.227,7.594,39.806,7.594 M39.806,4.594c-9.248,0-16.745,7.511-16.745,16.775
		s7.497,16.775,16.745,16.775c9.248,0,16.745-7.511,16.745-16.775S49.054,4.594,39.806,4.594L39.806,4.594z"/>
</g>
<path style="fill-rule:evenodd;clip-rule:evenodd;fill:none;stroke:#00354E;stroke-width:3;stroke-linecap:round;stroke-linejoin:round;stroke-miterlimit:10;" d="
	M23.312,44.359l8.933-8.201"/>
<path style="fill-rule:evenodd;clip-rule:evenodd;fill:none;stroke:#00354E;stroke-width:3;stroke-linecap:round;stroke-linejoin:round;stroke-miterlimit:10;" d="
	M47.764,36.159l8.933,8.201"/>
<g>
	<path style="fill:#00354E;" d="M67.318,42.673h0.005H67.318 M65.281,43.333V65.55l-26.515,9.311l-24.434-9.149V44.314l23.043,7.174
		c0.437,0.136,0.891,0.205,1.349,0.205c0.475,0,0.945-0.074,1.396-0.22L65.281,43.333 M66.869,39.744
		c-0.156,0-0.316,0.024-0.474,0.075l-27.199,8.8c-0.153,0.049-0.313,0.074-0.472,0.074c-0.154,0-0.308-0.023-0.456-0.069
		L13.201,40.82c-0.153-0.048-0.307-0.07-0.458-0.07c-0.751,0-1.412,0.555-1.412,1.292v24.884c0,0.524,0.347,0.996,0.877,1.194
		l26.004,9.737c0.172,0.064,0.354,0.097,0.537,0.097c0.172,0,0.344-0.029,0.507-0.086l28.117-9.873
		c0.546-0.192,0.906-0.671,0.906-1.205V41.036C68.281,40.298,67.619,39.744,66.869,39.744L66.869,39.744z"/>
</g>
<g>
	<path style="fill-rule:evenodd;clip-rule:evenodd;fill:#FFFFFF;" d="M11.331,62.973c-1.408,0-2.599-1.707-2.599-3.727
		s1.19-3.726,2.599-3.726s2.599,1.706,2.599,3.726S12.74,62.973,11.331,62.973z"/>
	<path style="fill:#00354E;" d="M11.331,57.02c0.377,0,1.099,0.867,1.099,2.226c0,1.359-0.721,2.226-1.099,2.226
		c-0.377,0-1.099-0.867-1.099-2.226C10.233,57.887,10.954,57.02,11.331,57.02 M11.331,54.02c-2.264,0-4.099,2.34-4.099,5.226
		c0,2.886,1.835,5.226,4.099,5.226c2.264,0,4.099-2.34,4.099-5.226C15.43,56.36,13.595,54.02,11.331,54.02L11.331,54.02z"/>
</g>
<g>
	<path style="fill-rule:evenodd;clip-rule:evenodd;fill:#FFFFFF;" d="M67.305,62.973c-1.408,0-2.598-1.707-2.598-3.727
		s1.189-3.726,2.598-3.726s2.599,1.706,2.599,3.726S68.713,62.973,67.305,62.973z"/>
	<path style="fill:#00354E;" d="M67.305,57.02c0.377,0,1.099,0.867,1.099,2.226c0,1.359-0.721,2.226-1.099,2.226
		c-0.377,0-1.099-0.867-1.099-2.226C66.207,57.887,66.928,57.02,67.305,57.02 M67.305,54.02c-2.264,0-4.099,2.34-4.099,5.226
		c0,2.886,1.835,5.226,4.099,5.226c2.264,0,4.099-2.34,4.099-5.226C71.404,56.36,69.569,54.02,67.305,54.02L67.305,54.02z"/>
</g>
<path style="fill-rule:evenodd;clip-rule:evenodd;fill:none;stroke:#00354E;stroke-width:3;stroke-linecap:round;stroke-linejoin:round;stroke-miterlimit:10;" d="
	M38.928,50.386v25.743"/>
</svg>
