<svg id="图层_1" data-name="图层 1" xmlns="http://www.w3.org/2000/svg" xmlns:xlink="http://www.w3.org/1999/xlink" viewBox="0 0 240 240"><defs><style>.cls-1,.cls-2{fill-rule:evenodd;}.cls-1{fill:url(#未命名的渐变_5);}.cls-2{fill:none;stroke:#00354e;stroke-linecap:round;stroke-linejoin:round;stroke-width:4px;}</style><linearGradient id="未命名的渐变_5" x1="165.42" y1="181.83" x2="216.96" y2="181.83" gradientUnits="userSpaceOnUse"><stop offset="0" stop-color="#4ce4a1"/><stop offset="1" stop-color="#2aebee"/></linearGradient></defs><title>成长守护官网icon(1)</title><path class="cls-1" d="M190.62,161.46s-18.8-.27-24.88,23.3c-.73,3,0,17.48,0,17.48H217s-.46-10.66-1.46-18.93S205.58,160.75,190.62,161.46Z"/><path class="cls-2" d="M156.43,182a81.12,81.12,0,0,1-49.78,17c-44.86,0-81.22-36.19-81.22-80.83S61.8,37.26,106.65,37.26s81.22,36.19,81.22,80.83"/><path class="cls-2" d="M106.65,109.35a8.73,8.73,0,1,1-8.78,8.73A8.76,8.76,0,0,1,106.65,109.35Z"/><path class="cls-2" d="M88.42,94.46l9.46,17.79"/><path class="cls-2" d="M146.86,84.61l-31.42,32"/><path class="cls-2" d="M59.78,71.57l-4.32-4.32"/><path class="cls-2" d="M157.85,67.24l-4.32,4.32"/><path class="cls-2" d="M59.78,165.31l-4.32,4.32"/><path class="cls-2" d="M40.37,118.44H34.25"/><path class="cls-2" d="M106.65,46v6.12"/><path class="cls-2" d="M106.65,184.72v6.12"/><path class="cls-2" d="M156.57,121.54s-6.54,29.2,18.49,39.38"/><path class="cls-2" d="M148.26,120h60.66"/><path class="cls-2" d="M148.26,202.23h60.66"/><path class="cls-2" d="M156.55,200.81s-6.54-29.58,18.52-39.89"/><path class="cls-2" d="M183,160.93c25-10.18,18.49-39.38,18.49-39.38"/><path class="cls-2" d="M183,160.93c25.06,10.31,18.52,39.89,18.52,39.89"/><path class="cls-2" d="M167.89,143.09s10.32,16.37,21.4,0"/></svg>