<?xml version="1.0" encoding="iso-8859-1"?>
<!-- Generator: Adobe Illustrator 22.0.0, SVG Export Plug-In . SVG Version: 6.00 Build 0)  -->
<svg version="1.1" id="&#x56FE;&#x5C42;_1" xmlns="http://www.w3.org/2000/svg" xmlns:xlink="http://www.w3.org/1999/xlink" x="0px"
	 y="0px" viewBox="0 0 80 80" style="enable-background:new 0 0 80 80;" xml:space="preserve">
<linearGradient id="SVGID_1_" gradientUnits="userSpaceOnUse" x1="33.4488" y1="28.9829" x2="64.0711" y2="28.9829">
	<stop  offset="0" style="stop-color:#4CE4A1"/>
	<stop  offset="1" style="stop-color:#2AEBEE"/>
</linearGradient>
<path style="fill-rule:evenodd;clip-rule:evenodd;fill:url(#SVGID_1_);" d="M48.76,13.588c8.456,0,15.311,6.893,15.311,15.395
	c0,8.502-6.855,15.395-15.311,15.395s-15.311-6.893-15.311-15.395C33.449,20.481,40.304,13.588,48.76,13.588z"/>
<path style="fill-rule:evenodd;clip-rule:evenodd;fill:none;stroke:#00354E;stroke-width:3;stroke-linecap:round;stroke-linejoin:round;stroke-miterlimit:10;" d="
	M13.431,71.164c0-17.005,13.73-30.791,30.668-30.791s30.668,13.785,30.668,30.791"/>
<path style="fill-rule:evenodd;clip-rule:evenodd;fill:none;stroke:#00354E;stroke-width:3;stroke-linecap:round;stroke-linejoin:round;stroke-miterlimit:10;" d="
	M44.098,9.584c8.456,0,15.311,6.893,15.311,15.395c0,8.502-6.855,15.395-15.311,15.395s-15.311-6.893-15.311-15.395
	C28.787,16.476,35.642,9.584,44.098,9.584z"/>
<path style="fill-rule:evenodd;clip-rule:evenodd;fill:none;stroke:#00354E;stroke-width:3;stroke-linecap:round;stroke-linejoin:round;stroke-miterlimit:10;" d="
	M20.816,35.642c-2.896-1.495-5.158-4.146-6.032-7.519c-1.648-6.353,2.25-12.861,8.706-14.535"/>
<path style="fill-rule:evenodd;clip-rule:evenodd;fill:none;stroke:#00354E;stroke-width:3;stroke-linecap:round;stroke-linejoin:round;stroke-miterlimit:10;" d="
	M4.193,58.491c0-10.386,6.769-19.216,16.203-22.451"/>
<path style="fill-rule:evenodd;clip-rule:evenodd;fill:none;stroke:#00354E;stroke-width:3;stroke-linecap:round;stroke-linejoin:round;stroke-miterlimit:10;" d="
	M51.938,24.979c0,4.423-3.51,8.009-7.839,8.009c-4.329,0-7.839-3.586-7.839-8.009"/>
</svg>
